# xmcd CD database file generated by Grip 3.2.0
# 
# Track frame offsets:
#       150
#       10415
#       30250
#       50527
#       75205
#       97857
#       115737
#       136947
#       153685
#       172747
# 
# Disc length: 2403 seconds
# 
# Revision: 1
# Processed by: cddbd v1.5.2PL0 Copyright (c) Steve Scherf et al.
# Submitted via: Grip 3.2.0
# 
DISCID=6409610a
DTITLE=Zack Prather - Never My Love
DYEAR=1995
DGENRE=Blues
TTITLE0=Little Man
TTITLE1=Take Your Shot
TTITLE2=Real World
TTITLE3=Without you
TTITLE4=Out Of Time
TTITLE5=Never My Love
TTITLE6=Mean Little Baby
TTITLE7=Shelter
TTITLE8=Save The Children
TTITLE9=Bluer Than Blue
EXTD=
EXTT0=
EXTT1=
EXTT2=
EXTT3=
EXTT4=
EXTT5=
EXTT6=
EXTT7=
EXTT8=
EXTT9=
PLAYORDER=
